<svg width="19" height="19" viewBox="0 0 19 19" fill="none" xmlns="http://www.w3.org/2000/svg">
<path d="M11.3544 9.49971L18.6183 2.23832C19.1272 1.72676 19.1272 0.895139 18.6183 0.383668C18.1068 -0.127889 17.2726 -0.127889 16.7637 0.383668L9.49975 7.64506L2.23831 0.383668C1.72676 -0.127889 0.895135 -0.127889 0.383666 0.383668C-0.127802 0.895225 -0.127889 1.72685 0.383666 2.23832L7.64502 9.49971L0.383666 16.7637C-0.127889 17.2726 -0.127889 18.1069 0.383666 18.6183C0.895221 19.1272 1.72684 19.1272 2.23831 18.6183L9.49967 11.3544L16.7636 18.6183C17.2725 19.1272 18.1068 19.1272 18.6183 18.6183C19.1271 18.1068 19.1271 17.2726 18.6183 16.7637L11.3544 9.49971Z" fill="#99A6B7"/>
</svg>